# xmcd CD database file
#
# Track frame offsets:
#	150
#	19952
#	38641
#	50741
#	68056
#	82628
#	98190
#	114842
#	126872
#	146599
#	163053
#	181237
#	202294
#	222453
#	242780
#	265733
#	285380
#	306450
#
# Disc length: 4275 seconds
#
# Revision: 0
# Processed by: cddbd v1.4PL0 Copyright (c) Steve Scherf et al.
# Submitted via: CDex 1.51
#
DISCID=0710b112
DTITLE=Sissel - Gift of Love
DYEAR=2000
DGENRE=Blues
TTITLE0=fire in your heart (Solo Version)
TTITLE1=the gift of love
TTITLE2=if
TTITLE3=breakaway
TTITLE4=need I say more
TTITLE5=dream a little dream of me
TTITLE6=moonlight
TTITLE7=here, there and everywhere
TTITLE8=miracle song
TTITLE9=solitare
TTITLE10=breaking up is hard to do
TTITLE11=calling you
TTITLE12=weightless
TTITLE13=carrier of a secret
TTITLE14=should it matter
TTITLE15=saran's song
TTITLE16=one day
TTITLE17=we both know
EXTD=YEAR: 2000
EXTT0=
EXTT1=
EXTT2=
EXTT3=
EXTT4=
EXTT5=
EXTT6=
EXTT7=
EXTT8=
EXTT9=
EXTT10=
EXTT11=
EXTT12=
EXTT13=
EXTT14=
EXTT15=
EXTT16=
EXTT17=
PLAYORDER=
